<mxfile host="app.diagrams.net" modified="2023-06-29T07:01:27.938Z" agent="Mozilla/5.0 (Windows NT 10.0; Win64; x64) AppleWebKit/537.36 (KHTML, like Gecko) Chrome/114.0.0.0 Safari/537.36" version="21.5.2" etag="PMPl21wM7pN3txUks9DU" type="device">
  <diagram id="ZJcSGTAqhcQ0T0kWDV0H" name="페이지-1">
    <mxGraphModel dx="1183" dy="625" grid="1" gridSize="10" guides="1" tooltips="1" connect="1" arrows="1" fold="1" page="1" pageScale="1" pageWidth="827" pageHeight="1169" math="0" shadow="0">
      <root>
        <mxCell id="0" />
        <mxCell id="1" parent="0" />
        <mxCell id="6T-xgP-qapZguUlRpWSi-1" value="" style="rounded=0;whiteSpace=wrap;html=1;fillColor=none;" vertex="1" parent="1">
          <mxGeometry x="161" y="40" width="499" height="430" as="geometry" />
        </mxCell>
        <mxCell id="6T-xgP-qapZguUlRpWSi-2" value="판매자&lt;br&gt;(관리자)" style="shape=umlActor;verticalLabelPosition=bottom;verticalAlign=top;html=1;" vertex="1" parent="1">
          <mxGeometry x="109" y="220" width="30" height="60" as="geometry" />
        </mxCell>
        <mxCell id="6T-xgP-qapZguUlRpWSi-3" value="문의관리 메뉴" style="text;strokeColor=none;fillColor=none;align=left;verticalAlign=middle;spacingLeft=4;spacingRight=4;overflow=hidden;points=[[0,0.5],[1,0.5]];portConstraint=eastwest;rotatable=0;whiteSpace=wrap;html=1;" vertex="1" parent="1">
          <mxGeometry x="363.75" y="40" width="93.5" height="30" as="geometry" />
        </mxCell>
        <mxCell id="6T-xgP-qapZguUlRpWSi-4" value="" style="endArrow=none;endFill=0;endSize=12;html=1;rounded=0;entryX=0.006;entryY=0.433;entryDx=0;entryDy=0;entryPerimeter=0;" edge="1" parent="1" source="6T-xgP-qapZguUlRpWSi-2" target="6T-xgP-qapZguUlRpWSi-7">
          <mxGeometry width="160" relative="1" as="geometry">
            <mxPoint x="265.79999999999995" y="227.5999999999999" as="sourcePoint" />
            <mxPoint x="299" y="155" as="targetPoint" />
          </mxGeometry>
        </mxCell>
        <mxCell id="6T-xgP-qapZguUlRpWSi-5" value="" style="endArrow=none;endFill=0;endSize=12;html=1;rounded=0;entryX=0.01;entryY=0.627;entryDx=0;entryDy=0;entryPerimeter=0;" edge="1" parent="1" source="6T-xgP-qapZguUlRpWSi-2" target="6T-xgP-qapZguUlRpWSi-14">
          <mxGeometry width="160" relative="1" as="geometry">
            <mxPoint x="265.6399999999999" y="206.9999999999999" as="sourcePoint" />
            <mxPoint x="351" y="269" as="targetPoint" />
          </mxGeometry>
        </mxCell>
        <mxCell id="6T-xgP-qapZguUlRpWSi-41" value="이번 프로젝트의 구현 범위" style="text;html=1;align=left;verticalAlign=middle;resizable=0;points=[];autosize=1;strokeColor=none;fillColor=none;" vertex="1" parent="1">
          <mxGeometry x="159.75" y="10" width="170" height="30" as="geometry" />
        </mxCell>
        <mxCell id="6T-xgP-qapZguUlRpWSi-42" value="" style="rounded=0;whiteSpace=wrap;html=1;fillColor=none;" vertex="1" parent="1">
          <mxGeometry x="159.75" y="520" width="558.5" height="462.5" as="geometry" />
        </mxCell>
        <mxCell id="6T-xgP-qapZguUlRpWSi-43" value="판매자" style="shape=umlActor;verticalLabelPosition=bottom;verticalAlign=top;html=1;" vertex="1" parent="1">
          <mxGeometry x="109" y="722" width="30" height="60" as="geometry" />
        </mxCell>
        <mxCell id="6T-xgP-qapZguUlRpWSi-44" value="문의관리 메뉴" style="text;strokeColor=none;fillColor=none;align=left;verticalAlign=middle;spacingLeft=4;spacingRight=4;overflow=hidden;points=[[0,0.5],[1,0.5]];portConstraint=eastwest;rotatable=0;whiteSpace=wrap;html=1;" vertex="1" parent="1">
          <mxGeometry x="392.25" y="520" width="93.5" height="30" as="geometry" />
        </mxCell>
        <mxCell id="6T-xgP-qapZguUlRpWSi-45" value="" style="endArrow=none;endFill=0;endSize=12;html=1;rounded=0;entryX=0.006;entryY=0.433;entryDx=0;entryDy=0;entryPerimeter=0;" edge="1" source="6T-xgP-qapZguUlRpWSi-43" target="6T-xgP-qapZguUlRpWSi-48" parent="1">
          <mxGeometry width="160" relative="1" as="geometry">
            <mxPoint x="265.79999999999995" y="707.5999999999999" as="sourcePoint" />
            <mxPoint x="299" y="635" as="targetPoint" />
          </mxGeometry>
        </mxCell>
        <mxCell id="6T-xgP-qapZguUlRpWSi-46" value="" style="endArrow=none;endFill=0;endSize=12;html=1;rounded=0;entryX=0.01;entryY=0.627;entryDx=0;entryDy=0;entryPerimeter=0;" edge="1" source="6T-xgP-qapZguUlRpWSi-43" target="6T-xgP-qapZguUlRpWSi-55" parent="1">
          <mxGeometry width="160" relative="1" as="geometry">
            <mxPoint x="265.6399999999999" y="686.9999999999999" as="sourcePoint" />
            <mxPoint x="351" y="749" as="targetPoint" />
          </mxGeometry>
        </mxCell>
        <mxCell id="6T-xgP-qapZguUlRpWSi-47" value="" style="group" vertex="1" connectable="0" parent="1">
          <mxGeometry x="179" y="570" width="520" height="395" as="geometry" />
        </mxCell>
        <mxCell id="6T-xgP-qapZguUlRpWSi-48" value="게시글 &lt;br&gt;목록 조회" style="ellipse;whiteSpace=wrap;html=1;" vertex="1" parent="6T-xgP-qapZguUlRpWSi-47">
          <mxGeometry x="136.75" y="222" width="80" height="50" as="geometry" />
        </mxCell>
        <mxCell id="6T-xgP-qapZguUlRpWSi-49" style="edgeStyle=orthogonalEdgeStyle;rounded=0;orthogonalLoop=1;jettySize=auto;html=1;exitX=0.5;exitY=1;exitDx=0;exitDy=0;" edge="1" parent="6T-xgP-qapZguUlRpWSi-47" source="6T-xgP-qapZguUlRpWSi-48" target="6T-xgP-qapZguUlRpWSi-48">
          <mxGeometry relative="1" as="geometry" />
        </mxCell>
        <mxCell id="6T-xgP-qapZguUlRpWSi-50" value="기간 설정" style="ellipse;whiteSpace=wrap;html=1;" vertex="1" parent="6T-xgP-qapZguUlRpWSi-47">
          <mxGeometry y="272" width="80" height="50" as="geometry" />
        </mxCell>
        <mxCell id="6T-xgP-qapZguUlRpWSi-51" value="&amp;lt;&amp;lt;include&amp;gt;&amp;gt;" style="rounded=0;orthogonalLoop=1;jettySize=auto;html=1;dashed=1;dashPattern=1 2;endArrow=open;endFill=0;entryX=0.929;entryY=0.247;entryDx=0;entryDy=0;entryPerimeter=0;exitX=0.063;exitY=0.775;exitDx=0;exitDy=0;exitPerimeter=0;" edge="1" parent="6T-xgP-qapZguUlRpWSi-47" source="6T-xgP-qapZguUlRpWSi-48" target="6T-xgP-qapZguUlRpWSi-50">
          <mxGeometry x="-0.0243" relative="1" as="geometry">
            <mxPoint as="offset" />
            <mxPoint x="150" y="240" as="sourcePoint" />
            <mxPoint x="60" y="77" as="targetPoint" />
          </mxGeometry>
        </mxCell>
        <mxCell id="6T-xgP-qapZguUlRpWSi-52" value="상품 상세&lt;br&gt;페이지 이동" style="ellipse;whiteSpace=wrap;html=1;" vertex="1" parent="6T-xgP-qapZguUlRpWSi-47">
          <mxGeometry x="370" y="222" width="80" height="50" as="geometry" />
        </mxCell>
        <mxCell id="6T-xgP-qapZguUlRpWSi-53" value="일괄 답변&lt;br&gt;작성" style="ellipse;whiteSpace=wrap;html=1;" vertex="1" parent="6T-xgP-qapZguUlRpWSi-47">
          <mxGeometry x="370" y="284" width="80" height="50" as="geometry" />
        </mxCell>
        <mxCell id="6T-xgP-qapZguUlRpWSi-54" value="게시글 &lt;br&gt;상세 조회" style="ellipse;whiteSpace=wrap;html=1;" vertex="1" parent="6T-xgP-qapZguUlRpWSi-47">
          <mxGeometry x="370" y="160" width="80" height="50" as="geometry" />
        </mxCell>
        <mxCell id="6T-xgP-qapZguUlRpWSi-55" value="답변 템플릿&lt;br&gt;관리" style="ellipse;whiteSpace=wrap;html=1;" vertex="1" parent="6T-xgP-qapZguUlRpWSi-47">
          <mxGeometry x="136.5" y="85" width="80" height="50" as="geometry" />
        </mxCell>
        <mxCell id="6T-xgP-qapZguUlRpWSi-56" value="&amp;lt;&amp;lt;extend&amp;gt;&amp;gt;" style="rounded=0;orthogonalLoop=1;jettySize=auto;html=1;exitX=0;exitY=0.449;exitDx=0;exitDy=0;dashed=1;dashPattern=1 2;endArrow=open;endFill=0;entryX=0.94;entryY=0.26;entryDx=0;entryDy=0;exitPerimeter=0;entryPerimeter=0;" edge="1" parent="6T-xgP-qapZguUlRpWSi-47" source="6T-xgP-qapZguUlRpWSi-54" target="6T-xgP-qapZguUlRpWSi-48">
          <mxGeometry x="-0.0312" y="-1" relative="1" as="geometry">
            <mxPoint as="offset" />
            <mxPoint x="171" y="196" as="sourcePoint" />
            <mxPoint x="80" y="217" as="targetPoint" />
          </mxGeometry>
        </mxCell>
        <mxCell id="6T-xgP-qapZguUlRpWSi-57" value="&amp;lt;&amp;lt;extend&amp;gt;&amp;gt;" style="rounded=0;orthogonalLoop=1;jettySize=auto;html=1;exitX=0;exitY=0.5;exitDx=0;exitDy=0;dashed=1;dashPattern=1 2;endArrow=open;endFill=0;entryX=1;entryY=0.5;entryDx=0;entryDy=0;" edge="1" parent="6T-xgP-qapZguUlRpWSi-47" source="6T-xgP-qapZguUlRpWSi-52" target="6T-xgP-qapZguUlRpWSi-48">
          <mxGeometry x="-0.1215" y="-1" relative="1" as="geometry">
            <mxPoint as="offset" />
            <mxPoint x="310" y="127" as="sourcePoint" />
            <mxPoint x="250" y="187" as="targetPoint" />
          </mxGeometry>
        </mxCell>
        <mxCell id="6T-xgP-qapZguUlRpWSi-58" value="구매내역 &lt;br&gt;조회" style="ellipse;whiteSpace=wrap;html=1;" vertex="1" parent="6T-xgP-qapZguUlRpWSi-47">
          <mxGeometry x="440" y="80" width="80" height="50" as="geometry" />
        </mxCell>
        <mxCell id="6T-xgP-qapZguUlRpWSi-59" value="&amp;lt;&amp;lt;extend&amp;gt;&amp;gt;" style="rounded=0;orthogonalLoop=1;jettySize=auto;html=1;dashed=1;dashPattern=1 2;endArrow=open;endFill=0;entryX=0.001;entryY=0.595;entryDx=0;entryDy=0;entryPerimeter=0;exitX=1;exitY=0.5;exitDx=0;exitDy=0;" edge="1" parent="6T-xgP-qapZguUlRpWSi-47" source="6T-xgP-qapZguUlRpWSi-55" target="6T-xgP-qapZguUlRpWSi-62">
          <mxGeometry x="-0.2593" relative="1" as="geometry">
            <mxPoint as="offset" />
            <mxPoint x="130" y="122" as="sourcePoint" />
            <mxPoint x="210" y="162" as="targetPoint" />
          </mxGeometry>
        </mxCell>
        <mxCell id="6T-xgP-qapZguUlRpWSi-60" value="&amp;lt;&amp;lt;extend&amp;gt;&amp;gt;" style="rounded=0;orthogonalLoop=1;jettySize=auto;html=1;exitX=0.201;exitY=0.921;exitDx=0;exitDy=0;dashed=1;dashPattern=1 2;endArrow=open;endFill=0;entryX=0.735;entryY=0.071;entryDx=0;entryDy=0;entryPerimeter=0;exitPerimeter=0;" edge="1" parent="6T-xgP-qapZguUlRpWSi-47" source="6T-xgP-qapZguUlRpWSi-58" target="6T-xgP-qapZguUlRpWSi-54">
          <mxGeometry x="-0.2593" relative="1" as="geometry">
            <mxPoint as="offset" />
            <mxPoint x="470" y="107" as="sourcePoint" />
            <mxPoint x="470" y="175" as="targetPoint" />
          </mxGeometry>
        </mxCell>
        <mxCell id="6T-xgP-qapZguUlRpWSi-61" value="&amp;lt;&amp;lt;extend&amp;gt;&amp;gt;" style="rounded=0;orthogonalLoop=1;jettySize=auto;html=1;exitX=0.644;exitY=0.993;exitDx=0;exitDy=0;dashed=1;dashPattern=1 2;endArrow=open;endFill=0;entryX=0.301;entryY=0.027;entryDx=0;entryDy=0;exitPerimeter=0;entryPerimeter=0;" edge="1" parent="6T-xgP-qapZguUlRpWSi-47" source="6T-xgP-qapZguUlRpWSi-62" target="6T-xgP-qapZguUlRpWSi-54">
          <mxGeometry x="-0.0914" y="-1" relative="1" as="geometry">
            <mxPoint as="offset" />
            <mxPoint x="470" y="107" as="sourcePoint" />
            <mxPoint x="470" y="175" as="targetPoint" />
          </mxGeometry>
        </mxCell>
        <mxCell id="6T-xgP-qapZguUlRpWSi-62" value="답변 &lt;br&gt;관리" style="ellipse;whiteSpace=wrap;html=1;" vertex="1" parent="6T-xgP-qapZguUlRpWSi-47">
          <mxGeometry x="329" y="80" width="80" height="50" as="geometry" />
        </mxCell>
        <mxCell id="6T-xgP-qapZguUlRpWSi-63" value="" style="endArrow=block;html=1;rounded=0;exitX=0.525;exitY=-0.007;exitDx=0;exitDy=0;entryX=0.5;entryY=1;entryDx=0;entryDy=0;endFill=0;exitPerimeter=0;" edge="1" parent="6T-xgP-qapZguUlRpWSi-47" source="6T-xgP-qapZguUlRpWSi-79" target="6T-xgP-qapZguUlRpWSi-48">
          <mxGeometry width="50" height="50" relative="1" as="geometry">
            <mxPoint x="350" y="252" as="sourcePoint" />
            <mxPoint x="400" y="202" as="targetPoint" />
          </mxGeometry>
        </mxCell>
        <mxCell id="6T-xgP-qapZguUlRpWSi-64" value="&amp;lt;&amp;lt;extend&amp;gt;&amp;gt;" style="rounded=0;orthogonalLoop=1;jettySize=auto;html=1;dashed=1;dashPattern=1 2;endArrow=open;endFill=0;entryX=0.94;entryY=0.774;entryDx=0;entryDy=0;entryPerimeter=0;exitX=0.012;exitY=0.393;exitDx=0;exitDy=0;exitPerimeter=0;" edge="1" parent="6T-xgP-qapZguUlRpWSi-47" source="6T-xgP-qapZguUlRpWSi-53" target="6T-xgP-qapZguUlRpWSi-48">
          <mxGeometry x="-0.1215" y="-1" relative="1" as="geometry">
            <mxPoint as="offset" />
            <mxPoint x="310" y="330" as="sourcePoint" />
            <mxPoint x="118" y="249" as="targetPoint" />
          </mxGeometry>
        </mxCell>
        <mxCell id="6T-xgP-qapZguUlRpWSi-65" value="" style="group" vertex="1" connectable="0" parent="6T-xgP-qapZguUlRpWSi-47">
          <mxGeometry x="90" width="173.5" height="57" as="geometry" />
        </mxCell>
        <mxCell id="6T-xgP-qapZguUlRpWSi-66" value="답변 템플릿&lt;br&gt;추가" style="ellipse;whiteSpace=wrap;html=1;" vertex="1" parent="6T-xgP-qapZguUlRpWSi-65">
          <mxGeometry width="80" height="50" as="geometry" />
        </mxCell>
        <mxCell id="6T-xgP-qapZguUlRpWSi-67" value="답변 템플릿&lt;br&gt;삭제" style="ellipse;whiteSpace=wrap;html=1;" vertex="1" parent="6T-xgP-qapZguUlRpWSi-65">
          <mxGeometry x="93.5" width="80" height="50" as="geometry" />
        </mxCell>
        <mxCell id="6T-xgP-qapZguUlRpWSi-68" value="" style="endArrow=none;html=1;rounded=0;entryX=0.5;entryY=1;entryDx=0;entryDy=0;exitX=0.457;exitY=0.998;exitDx=0;exitDy=0;exitPerimeter=0;" edge="1" parent="6T-xgP-qapZguUlRpWSi-65" source="6T-xgP-qapZguUlRpWSi-67" target="6T-xgP-qapZguUlRpWSi-66">
          <mxGeometry width="50" height="50" relative="1" as="geometry">
            <mxPoint x="220" y="177" as="sourcePoint" />
            <mxPoint x="270" y="127" as="targetPoint" />
            <Array as="points">
              <mxPoint x="130" y="57" />
              <mxPoint x="120" y="57" />
              <mxPoint x="110" y="57" />
              <mxPoint x="90" y="57" />
              <mxPoint x="60" y="57" />
              <mxPoint x="40" y="57" />
            </Array>
          </mxGeometry>
        </mxCell>
        <mxCell id="6T-xgP-qapZguUlRpWSi-69" value="" style="endArrow=block;html=1;rounded=0;entryX=0.542;entryY=-0.002;entryDx=0;entryDy=0;entryPerimeter=0;endFill=0;" edge="1" parent="6T-xgP-qapZguUlRpWSi-65" target="6T-xgP-qapZguUlRpWSi-55">
          <mxGeometry width="50" height="50" relative="1" as="geometry">
            <mxPoint x="90" y="57" as="sourcePoint" />
            <mxPoint x="90" y="77" as="targetPoint" />
          </mxGeometry>
        </mxCell>
        <mxCell id="6T-xgP-qapZguUlRpWSi-70" value="" style="group" vertex="1" connectable="0" parent="6T-xgP-qapZguUlRpWSi-47">
          <mxGeometry x="280" width="180" height="57" as="geometry" />
        </mxCell>
        <mxCell id="6T-xgP-qapZguUlRpWSi-71" value="답변 &lt;br&gt;작성" style="ellipse;whiteSpace=wrap;html=1;" vertex="1" parent="6T-xgP-qapZguUlRpWSi-70">
          <mxGeometry width="80" height="50" as="geometry" />
        </mxCell>
        <mxCell id="6T-xgP-qapZguUlRpWSi-72" value="답변 &lt;br&gt;수정" style="ellipse;whiteSpace=wrap;html=1;" vertex="1" parent="6T-xgP-qapZguUlRpWSi-70">
          <mxGeometry x="100" width="80" height="50" as="geometry" />
        </mxCell>
        <mxCell id="6T-xgP-qapZguUlRpWSi-73" value="" style="endArrow=block;html=1;rounded=0;endFill=0;entryX=0.5;entryY=0;entryDx=0;entryDy=0;" edge="1" parent="6T-xgP-qapZguUlRpWSi-70" target="6T-xgP-qapZguUlRpWSi-62">
          <mxGeometry width="50" height="50" relative="1" as="geometry">
            <mxPoint x="89" y="57" as="sourcePoint" />
            <mxPoint x="130" y="47" as="targetPoint" />
          </mxGeometry>
        </mxCell>
        <mxCell id="6T-xgP-qapZguUlRpWSi-74" value="" style="endArrow=none;html=1;rounded=0;exitX=0.5;exitY=1;exitDx=0;exitDy=0;entryX=0.5;entryY=1;entryDx=0;entryDy=0;" edge="1" parent="6T-xgP-qapZguUlRpWSi-70" source="6T-xgP-qapZguUlRpWSi-71" target="6T-xgP-qapZguUlRpWSi-72">
          <mxGeometry width="50" height="50" relative="1" as="geometry">
            <mxPoint x="100" y="77" as="sourcePoint" />
            <mxPoint x="150" y="27" as="targetPoint" />
            <Array as="points">
              <mxPoint x="40" y="57" />
              <mxPoint x="90" y="57" />
              <mxPoint x="140" y="57" />
            </Array>
          </mxGeometry>
        </mxCell>
        <mxCell id="6T-xgP-qapZguUlRpWSi-75" value="" style="group" vertex="1" connectable="0" parent="6T-xgP-qapZguUlRpWSi-47">
          <mxGeometry x="50" y="320" width="250" height="75" as="geometry" />
        </mxCell>
        <mxCell id="6T-xgP-qapZguUlRpWSi-76" value="답변상태별&lt;br style=&quot;border-color: var(--border-color);&quot;&gt;조회" style="ellipse;whiteSpace=wrap;html=1;rotation=0;" vertex="1" parent="6T-xgP-qapZguUlRpWSi-75">
          <mxGeometry y="25" width="80" height="50" as="geometry" />
        </mxCell>
        <mxCell id="6T-xgP-qapZguUlRpWSi-77" value="" style="endArrow=none;html=1;rounded=0;exitX=0.5;exitY=0;exitDx=0;exitDy=0;entryX=0.5;entryY=0;entryDx=0;entryDy=0;" edge="1" parent="6T-xgP-qapZguUlRpWSi-75" source="6T-xgP-qapZguUlRpWSi-78" target="6T-xgP-qapZguUlRpWSi-76">
          <mxGeometry width="50" height="50" relative="1" as="geometry">
            <mxPoint x="70" y="-180" as="sourcePoint" />
            <mxPoint x="50" y="10" as="targetPoint" />
            <Array as="points">
              <mxPoint x="210" />
              <mxPoint x="185" />
              <mxPoint x="150" />
              <mxPoint x="65" />
              <mxPoint x="40" />
            </Array>
          </mxGeometry>
        </mxCell>
        <mxCell id="6T-xgP-qapZguUlRpWSi-78" value="&lt;div&gt;상품번호로&lt;/div&gt;&lt;div&gt;조회&lt;/div&gt;" style="ellipse;whiteSpace=wrap;html=1;rotation=0;" vertex="1" parent="6T-xgP-qapZguUlRpWSi-75">
          <mxGeometry x="170" y="25" width="80" height="50" as="geometry" />
        </mxCell>
        <mxCell id="6T-xgP-qapZguUlRpWSi-79" value="문의유형별&lt;br&gt;조회" style="ellipse;whiteSpace=wrap;html=1;rotation=0;container=0;" vertex="1" parent="6T-xgP-qapZguUlRpWSi-75">
          <mxGeometry x="85" y="25" width="80" height="50" as="geometry" />
        </mxCell>
        <mxCell id="6T-xgP-qapZguUlRpWSi-80" value="판매상품&lt;br&gt;목록조회" style="ellipse;whiteSpace=wrap;html=1;rotation=0;" vertex="1" parent="6T-xgP-qapZguUlRpWSi-47">
          <mxGeometry x="400" y="345" width="80" height="50" as="geometry" />
        </mxCell>
        <mxCell id="6T-xgP-qapZguUlRpWSi-81" value="&amp;lt;&amp;lt;extend&amp;gt;&amp;gt;" style="rounded=0;orthogonalLoop=1;jettySize=auto;html=1;dashed=1;dashPattern=1 2;endArrow=open;endFill=0;entryX=1;entryY=0.5;entryDx=0;entryDy=0;exitX=0;exitY=0.5;exitDx=0;exitDy=0;" edge="1" parent="6T-xgP-qapZguUlRpWSi-47" source="6T-xgP-qapZguUlRpWSi-80" target="6T-xgP-qapZguUlRpWSi-78">
          <mxGeometry x="-0.1215" y="-1" relative="1" as="geometry">
            <mxPoint as="offset" />
            <mxPoint x="381" y="314" as="sourcePoint" />
            <mxPoint x="222" y="271" as="targetPoint" />
          </mxGeometry>
        </mxCell>
        <mxCell id="6T-xgP-qapZguUlRpWSi-82" value="확장 예정 범위" style="text;html=1;align=left;verticalAlign=middle;resizable=0;points=[];autosize=1;strokeColor=none;fillColor=none;" vertex="1" parent="1">
          <mxGeometry x="159.75" y="490" width="100" height="30" as="geometry" />
        </mxCell>
        <mxCell id="6T-xgP-qapZguUlRpWSi-7" value="게시글 &lt;br&gt;목록 조회" style="ellipse;whiteSpace=wrap;html=1;" vertex="1" parent="1">
          <mxGeometry x="315.75" y="282" width="80" height="50" as="geometry" />
        </mxCell>
        <mxCell id="6T-xgP-qapZguUlRpWSi-8" style="edgeStyle=orthogonalEdgeStyle;rounded=0;orthogonalLoop=1;jettySize=auto;html=1;exitX=0.5;exitY=1;exitDx=0;exitDy=0;" edge="1" parent="1" source="6T-xgP-qapZguUlRpWSi-7" target="6T-xgP-qapZguUlRpWSi-7">
          <mxGeometry relative="1" as="geometry" />
        </mxCell>
        <mxCell id="6T-xgP-qapZguUlRpWSi-9" value="기간 설정" style="ellipse;whiteSpace=wrap;html=1;" vertex="1" parent="1">
          <mxGeometry x="179" y="332" width="80" height="50" as="geometry" />
        </mxCell>
        <mxCell id="6T-xgP-qapZguUlRpWSi-10" value="&amp;lt;&amp;lt;include&amp;gt;&amp;gt;" style="rounded=0;orthogonalLoop=1;jettySize=auto;html=1;dashed=1;dashPattern=1 2;endArrow=open;endFill=0;entryX=0.929;entryY=0.247;entryDx=0;entryDy=0;entryPerimeter=0;exitX=0.063;exitY=0.775;exitDx=0;exitDy=0;exitPerimeter=0;" edge="1" parent="1" source="6T-xgP-qapZguUlRpWSi-7" target="6T-xgP-qapZguUlRpWSi-9">
          <mxGeometry x="-0.0243" relative="1" as="geometry">
            <mxPoint as="offset" />
            <mxPoint x="329" y="300" as="sourcePoint" />
            <mxPoint x="239" y="137" as="targetPoint" />
          </mxGeometry>
        </mxCell>
        <mxCell id="6T-xgP-qapZguUlRpWSi-12" value="일괄 답변&lt;br&gt;작성" style="ellipse;whiteSpace=wrap;html=1;" vertex="1" parent="1">
          <mxGeometry x="508" y="344" width="80" height="50" as="geometry" />
        </mxCell>
        <mxCell id="6T-xgP-qapZguUlRpWSi-13" value="게시글 &lt;br&gt;상세 조회" style="ellipse;whiteSpace=wrap;html=1;" vertex="1" parent="1">
          <mxGeometry x="508" y="270" width="80" height="50" as="geometry" />
        </mxCell>
        <mxCell id="6T-xgP-qapZguUlRpWSi-14" value="답변 템플릿&lt;br&gt;관리" style="ellipse;whiteSpace=wrap;html=1;" vertex="1" parent="1">
          <mxGeometry x="315.5" y="175" width="80" height="50" as="geometry" />
        </mxCell>
        <mxCell id="6T-xgP-qapZguUlRpWSi-15" value="&amp;lt;&amp;lt;extend&amp;gt;&amp;gt;" style="rounded=0;orthogonalLoop=1;jettySize=auto;html=1;exitX=0;exitY=0.449;exitDx=0;exitDy=0;dashed=1;dashPattern=1 2;endArrow=open;endFill=0;entryX=0.94;entryY=0.26;entryDx=0;entryDy=0;exitPerimeter=0;entryPerimeter=0;" edge="1" parent="1" source="6T-xgP-qapZguUlRpWSi-13" target="6T-xgP-qapZguUlRpWSi-7">
          <mxGeometry x="-0.0312" y="-1" relative="1" as="geometry">
            <mxPoint as="offset" />
            <mxPoint x="350" y="256" as="sourcePoint" />
            <mxPoint x="259" y="277" as="targetPoint" />
          </mxGeometry>
        </mxCell>
        <mxCell id="6T-xgP-qapZguUlRpWSi-18" value="&amp;lt;&amp;lt;extend&amp;gt;&amp;gt;" style="rounded=0;orthogonalLoop=1;jettySize=auto;html=1;dashed=1;dashPattern=1 2;endArrow=open;endFill=0;entryX=0.001;entryY=0.595;entryDx=0;entryDy=0;entryPerimeter=0;exitX=1;exitY=0.5;exitDx=0;exitDy=0;" edge="1" parent="1" source="6T-xgP-qapZguUlRpWSi-14" target="6T-xgP-qapZguUlRpWSi-21">
          <mxGeometry x="-0.2593" relative="1" as="geometry">
            <mxPoint as="offset" />
            <mxPoint x="309" y="212" as="sourcePoint" />
            <mxPoint x="389" y="252" as="targetPoint" />
          </mxGeometry>
        </mxCell>
        <mxCell id="6T-xgP-qapZguUlRpWSi-20" value="&amp;lt;&amp;lt;extend&amp;gt;&amp;gt;" style="rounded=0;orthogonalLoop=1;jettySize=auto;html=1;exitX=0.5;exitY=1;exitDx=0;exitDy=0;dashed=1;dashPattern=1 2;endArrow=open;endFill=0;entryX=0.5;entryY=0;entryDx=0;entryDy=0;" edge="1" parent="1" source="6T-xgP-qapZguUlRpWSi-21" target="6T-xgP-qapZguUlRpWSi-13">
          <mxGeometry x="-0.0914" y="-1" relative="1" as="geometry">
            <mxPoint as="offset" />
            <mxPoint x="649" y="197" as="sourcePoint" />
            <mxPoint x="649" y="265" as="targetPoint" />
          </mxGeometry>
        </mxCell>
        <mxCell id="6T-xgP-qapZguUlRpWSi-21" value="답변 &lt;br&gt;관리" style="ellipse;whiteSpace=wrap;html=1;" vertex="1" parent="1">
          <mxGeometry x="508" y="170" width="80" height="50" as="geometry" />
        </mxCell>
        <mxCell id="6T-xgP-qapZguUlRpWSi-22" value="" style="endArrow=block;html=1;rounded=0;entryX=0.5;entryY=1;entryDx=0;entryDy=0;endFill=0;" edge="1" parent="1" target="6T-xgP-qapZguUlRpWSi-7">
          <mxGeometry width="50" height="50" relative="1" as="geometry">
            <mxPoint x="356" y="380" as="sourcePoint" />
            <mxPoint x="579" y="262" as="targetPoint" />
          </mxGeometry>
        </mxCell>
        <mxCell id="6T-xgP-qapZguUlRpWSi-23" value="&amp;lt;&amp;lt;extend&amp;gt;&amp;gt;" style="rounded=0;orthogonalLoop=1;jettySize=auto;html=1;dashed=1;dashPattern=1 2;endArrow=open;endFill=0;entryX=0.94;entryY=0.774;entryDx=0;entryDy=0;entryPerimeter=0;exitX=0.012;exitY=0.393;exitDx=0;exitDy=0;exitPerimeter=0;" edge="1" parent="1" source="6T-xgP-qapZguUlRpWSi-12" target="6T-xgP-qapZguUlRpWSi-7">
          <mxGeometry x="-0.1215" y="-1" relative="1" as="geometry">
            <mxPoint as="offset" />
            <mxPoint x="489" y="390" as="sourcePoint" />
            <mxPoint x="297" y="309" as="targetPoint" />
          </mxGeometry>
        </mxCell>
        <mxCell id="6T-xgP-qapZguUlRpWSi-24" value="" style="group" vertex="1" connectable="0" parent="1">
          <mxGeometry x="269" y="90" width="173.5" height="57" as="geometry" />
        </mxCell>
        <mxCell id="6T-xgP-qapZguUlRpWSi-25" value="답변 템플릿&lt;br&gt;추가" style="ellipse;whiteSpace=wrap;html=1;" vertex="1" parent="6T-xgP-qapZguUlRpWSi-24">
          <mxGeometry width="80" height="50" as="geometry" />
        </mxCell>
        <mxCell id="6T-xgP-qapZguUlRpWSi-26" value="답변 템플릿&lt;br&gt;삭제" style="ellipse;whiteSpace=wrap;html=1;" vertex="1" parent="6T-xgP-qapZguUlRpWSi-24">
          <mxGeometry x="93.5" width="80" height="50" as="geometry" />
        </mxCell>
        <mxCell id="6T-xgP-qapZguUlRpWSi-27" value="" style="endArrow=none;html=1;rounded=0;entryX=0.5;entryY=1;entryDx=0;entryDy=0;exitX=0.457;exitY=0.998;exitDx=0;exitDy=0;exitPerimeter=0;" edge="1" parent="6T-xgP-qapZguUlRpWSi-24" source="6T-xgP-qapZguUlRpWSi-26" target="6T-xgP-qapZguUlRpWSi-25">
          <mxGeometry width="50" height="50" relative="1" as="geometry">
            <mxPoint x="220" y="177" as="sourcePoint" />
            <mxPoint x="270" y="127" as="targetPoint" />
            <Array as="points">
              <mxPoint x="130" y="57" />
              <mxPoint x="120" y="57" />
              <mxPoint x="110" y="57" />
              <mxPoint x="90" y="57" />
              <mxPoint x="60" y="57" />
              <mxPoint x="40" y="57" />
            </Array>
          </mxGeometry>
        </mxCell>
        <mxCell id="6T-xgP-qapZguUlRpWSi-28" value="" style="endArrow=block;html=1;rounded=0;entryX=0.542;entryY=-0.002;entryDx=0;entryDy=0;entryPerimeter=0;endFill=0;" edge="1" parent="6T-xgP-qapZguUlRpWSi-24" target="6T-xgP-qapZguUlRpWSi-14">
          <mxGeometry width="50" height="50" relative="1" as="geometry">
            <mxPoint x="90" y="57" as="sourcePoint" />
            <mxPoint x="90" y="77" as="targetPoint" />
          </mxGeometry>
        </mxCell>
        <mxCell id="6T-xgP-qapZguUlRpWSi-29" value="" style="group" vertex="1" connectable="0" parent="1">
          <mxGeometry x="459" y="90" width="180" height="57" as="geometry" />
        </mxCell>
        <mxCell id="6T-xgP-qapZguUlRpWSi-30" value="답변 &lt;br&gt;작성" style="ellipse;whiteSpace=wrap;html=1;" vertex="1" parent="6T-xgP-qapZguUlRpWSi-29">
          <mxGeometry width="80" height="50" as="geometry" />
        </mxCell>
        <mxCell id="6T-xgP-qapZguUlRpWSi-31" value="답변 &lt;br&gt;수정" style="ellipse;whiteSpace=wrap;html=1;" vertex="1" parent="6T-xgP-qapZguUlRpWSi-29">
          <mxGeometry x="100" width="80" height="50" as="geometry" />
        </mxCell>
        <mxCell id="6T-xgP-qapZguUlRpWSi-32" value="" style="endArrow=block;html=1;rounded=0;endFill=0;entryX=0.5;entryY=0;entryDx=0;entryDy=0;" edge="1" parent="6T-xgP-qapZguUlRpWSi-29" target="6T-xgP-qapZguUlRpWSi-21">
          <mxGeometry width="50" height="50" relative="1" as="geometry">
            <mxPoint x="89" y="57" as="sourcePoint" />
            <mxPoint x="130" y="47" as="targetPoint" />
          </mxGeometry>
        </mxCell>
        <mxCell id="6T-xgP-qapZguUlRpWSi-33" value="" style="endArrow=none;html=1;rounded=0;exitX=0.5;exitY=1;exitDx=0;exitDy=0;entryX=0.5;entryY=1;entryDx=0;entryDy=0;" edge="1" parent="6T-xgP-qapZguUlRpWSi-29" source="6T-xgP-qapZguUlRpWSi-30" target="6T-xgP-qapZguUlRpWSi-31">
          <mxGeometry width="50" height="50" relative="1" as="geometry">
            <mxPoint x="100" y="77" as="sourcePoint" />
            <mxPoint x="150" y="27" as="targetPoint" />
            <Array as="points">
              <mxPoint x="40" y="57" />
              <mxPoint x="90" y="57" />
              <mxPoint x="140" y="57" />
            </Array>
          </mxGeometry>
        </mxCell>
        <mxCell id="6T-xgP-qapZguUlRpWSi-35" value="답변상태별&lt;br style=&quot;border-color: var(--border-color);&quot;&gt;조회" style="ellipse;whiteSpace=wrap;html=1;rotation=0;" vertex="1" parent="1">
          <mxGeometry x="271.25" y="405" width="80" height="50" as="geometry" />
        </mxCell>
        <mxCell id="6T-xgP-qapZguUlRpWSi-36" value="" style="endArrow=none;html=1;rounded=0;exitX=0.5;exitY=0;exitDx=0;exitDy=0;entryX=0.5;entryY=0;entryDx=0;entryDy=0;" edge="1" parent="1" source="6T-xgP-qapZguUlRpWSi-37" target="6T-xgP-qapZguUlRpWSi-35">
          <mxGeometry width="50" height="50" relative="1" as="geometry">
            <mxPoint x="310.25" y="200" as="sourcePoint" />
            <mxPoint x="290.25" y="390" as="targetPoint" />
            <Array as="points">
              <mxPoint x="401.25" y="380" />
              <mxPoint x="390.25" y="380" />
              <mxPoint x="311.25" y="380" />
            </Array>
          </mxGeometry>
        </mxCell>
        <mxCell id="6T-xgP-qapZguUlRpWSi-37" value="문의유형별&lt;br style=&quot;border-color: var(--border-color);&quot;&gt;조회" style="ellipse;whiteSpace=wrap;html=1;rotation=0;" vertex="1" parent="1">
          <mxGeometry x="361.25" y="405" width="80" height="50" as="geometry" />
        </mxCell>
      </root>
    </mxGraphModel>
  </diagram>
</mxfile>
